<svg xmlns="http://www.w3.org/2000/svg" viewBox="0 0 512 512" width="512" height="512" role="img"><g fill="none" stroke="#2E2A26" stroke-width="4" stroke-linecap="round" stroke-linejoin="round"><ellipse cx="256" cy="286" rx="148" ry="92" fill="#FFFFFF"/><rect x="160" y="350" width="30" height="96" rx="12" fill="#FFFFFF"/><rect x="230" y="350" width="30" height="96" rx="12" fill="#FFFFFF"/><rect x="300" y="350" width="30" height="96" rx="12" fill="#FFFFFF"/><rect x="354" y="350" width="30" height="96" rx="12" fill="#FFFFFF"/><path d="M382 258 q46 -22 62 -70 l34 12 q-10 78 -56 96 z" fill="#FFFFFF"/><path d="M448 200 l10 -46 30 8 -8 46 z" fill="#FFFFFF"/><ellipse cx="436" cy="152" rx="20" ry="12" fill="#FFFFFF" transform="rotate(-20 436 152)"/><path d="M124 244 q-30 -10 -44 -50 l24 -14 q24 30 44 34 z" fill="#2E2A26"/><path d="M188 202 l-14 168" fill="none" stroke-width="10"/><path d="M238 194 l-10 172" fill="none" stroke-width="10"/><path d="M288 194 l10 172" fill="none" stroke-width="10"/><path d="M338 202 l14 168" fill="none" stroke-width="10"/><path d="M406 214 l24 56" fill="none" stroke-width="10"/><path d="M418 168 l22 34" fill="none" stroke-width="10"/><circle cx="442" cy="148" r="7" fill="#2E2A26"/></g></svg>