<svg xmlns="http://www.w3.org/2000/svg" viewBox="0 0 512 512" width="512" height="512" role="img"><g fill="none" stroke="#2E2A26" stroke-width="4" stroke-linecap="round" stroke-linejoin="round"><ellipse cx="272" cy="288" rx="128" ry="96" fill="#7E7770"/><circle cx="384" cy="236" r="78" fill="#7E7770"/><ellipse cx="438" cy="216" rx="62" ry="76" fill="#C3BDB6"/><path d="M384 292 q-10 96 42 116 q34 12 40 -22 q-30 -4 -34 -34 q-4 -32 -10 -60 z" fill="#C3BDB6"/><circle cx="412" cy="212" r="9" fill="#2E2A26"/><rect x="198" y="362" width="30" height="74" rx="12" fill="#7E7770"/><rect x="264" y="362" width="30" height="74" rx="12" fill="#7E7770"/><rect x="330" y="362" width="30" height="74" rx="12" fill="#7E7770"/><path d="M148 254 q-34 -10 -44 -46 q34 8 54 24 z" fill="#C3BDB6"/><path d="M414 396 q10 22 -6 30" fill="none" stroke-width="8"/></g></svg>