<svg xmlns="http://www.w3.org/2000/svg" viewBox="0 0 512 512" width="512" height="512" role="img"><g fill="none" stroke="#2E2A26" stroke-width="4" stroke-linecap="round" stroke-linejoin="round"><ellipse cx="238" cy="320" rx="122" ry="84" fill="#F2C24C"/><path d="M322 300 l46 -180 h62 l-24 186 z" fill="#F2C24C"/><ellipse cx="396" cy="116" rx="56" ry="46" fill="#F2C24C"/><ellipse cx="360" cy="88" rx="14" ry="22" fill="#F2C24C" transform="rotate(-24 360 88)"/><ellipse cx="410" cy="84" rx="14" ry="22" fill="#F2C24C" transform="rotate(10 410 84)"/><circle cx="420" cy="108" r="8" fill="#2E2A26"/><ellipse cx="350" cy="116" rx="10" ry="8" fill="#E58B3C"/><ellipse cx="390" cy="146" rx="10" ry="8" fill="#E58B3C"/><ellipse cx="262" cy="300" rx="16" ry="12" fill="#E58B3C"/><ellipse cx="200" cy="336" rx="16" ry="12" fill="#E58B3C"/><ellipse cx="300" cy="340" rx="16" ry="12" fill="#E58B3C"/><rect x="178" y="386" width="26" height="60" rx="10" fill="#D9A32E"/><rect x="232" y="386" width="26" height="60" rx="10" fill="#D9A32E"/><rect x="292" y="386" width="26" height="60" rx="10" fill="#D9A32E"/><path d="M150 296 q-40 -8 -46 -46 q34 12 52 24 z" fill="#D9A32E"/></g></svg>