<svg xmlns="http://www.w3.org/2000/svg" viewBox="0 0 512 512" width="512" height="512" role="img"><g fill="none" stroke="#2E2A26" stroke-width="4" stroke-linecap="round" stroke-linejoin="round"><g transform="translate(92.160 132.160) scale(0.6400 0.6400)" stroke-width="6.250000"><rect x="214" y="372" width="34" height="82" rx="15" fill="#4C81BE"/><rect x="264" y="372" width="34" height="82" rx="15" fill="#4C81BE"/><path d="M256 300 v80" fill="none"/><rect x="198" y="236" width="116" height="152" rx="34" fill="#5FA463"/><path d="M206 262 l-38 96" fill="none"/><path d="M306 262 l38 96" fill="none"/><circle cx="256" cy="172" r="62" fill="#F0C9A6"/><path d="M194 168 a62 62 0 0 1 124 0 q-20 -22 -62 -22 q-42 0 -62 22 z" fill="#8B5E3C"/><path d="M212 196 q44 74 88 0 q-6 62 -44 62 q-38 0 -44 -62 z" fill="#8B5E3C"/><circle cx="234" cy="172" r="6" fill="#2E2A26"/><circle cx="278" cy="172" r="6" fill="#2E2A26"/></g><rect x="200" y="316" width="112" height="88" rx="8" fill="#FFFFFF"/><rect x="208" y="324" width="96" height="72" rx="4" fill="#A9CCE8"/><circle cx="200" cy="360" r="13" fill="#F0C9A6"/><circle cx="312" cy="360" r="13" fill="#F0C9A6"/><path d="M40 424 h432" fill="none" stroke-width="6"/></g></svg>