<svg xmlns="http://www.w3.org/2000/svg" viewBox="0 0 512 512" width="512" height="512" role="img"><g fill="none" stroke="#2E2A26" stroke-width="4" stroke-linecap="round" stroke-linejoin="round"><path d="M150 424 L176 168" fill="none" stroke-width="14"/><path d="M362 424 L336 168" fill="none" stroke-width="14"/><path d="M173.2 196 h165.7" fill="none" stroke-width="12"/><path d="M168.1 246 h175.8" fill="none" stroke-width="12"/><path d="M163.0 296 h186.0" fill="none" stroke-width="12"/><path d="M157.9 346 h196.2" fill="none" stroke-width="12"/><path d="M153.5 390 h205.1" fill="none" stroke-width="12"/><g transform="translate(115.200 139.200) scale(0.5500 0.5500)" stroke-width="7.272727"><ellipse cx="268" cy="330" rx="118" ry="84" fill="#C3BDB6"/><path d="M392 306 q54 -22 62 -80 q26 44 4 84 q-24 34 -60 30 z" fill="#C3BDB6"/><circle cx="184" cy="268" r="84" fill="#C3BDB6"/><path d="M118 210 l-6 -66 54 30 z" fill="#C3BDB6"/><path d="M250 210 l6 -66 -54 30 z" fill="#C3BDB6"/><circle cx="158" cy="254" r="9" fill="#2E2A26"/><circle cx="212" cy="254" r="9" fill="#2E2A26"/><path d="M184 288 l-8 14 16 0 z" fill="#E9A6AE"/><path d="M126 280 h-58" fill="none" stroke-width="5"/><path d="M130 296 l-56 20" fill="none" stroke-width="5"/><path d="M242 280 h58" fill="none" stroke-width="5"/><path d="M238 296 l56 20" fill="none" stroke-width="5"/><rect x="212" y="400" width="26" height="54" rx="10" fill="#C3BDB6"/><rect x="300" y="400" width="26" height="54" rx="10" fill="#C3BDB6"/></g><path d="M40 424 h432" fill="none" stroke-width="6"/></g></svg>